<?xml version="1.0" encoding="UTF-8"?>
<svg xmlns="http://www.w3.org/2000/svg" viewBox="0 0 64 64">
  <defs>
    <linearGradient id="g" x1="10" y1="6" x2="54" y2="58" gradientUnits="userSpaceOnUse">
      <stop offset="0" stop-color="#14532d"/>
      <stop offset="0.55" stop-color="#16a34a"/>
      <stop offset="1" stop-color="#22c55e"/>
    </linearGradient>
    <filter id="s" x="-20%" y="-20%" width="140%" height="140%">
      <feDropShadow dx="0" dy="6" stdDeviation="4" flood-color="#052e16" flood-opacity="0.32"/>
    </filter>
  </defs>

  <rect x="6" y="6" width="52" height="52" rx="14" fill="url(#g)"/>

  <path filter="url(#s)" d="M22 18h16l6 6v22a4 4 0 0 1-4 4H22a4 4 0 0 1-4-4V22a4 4 0 0 1 4-4Z" fill="#ffffff" fill-opacity="0.96"/>
  <path d="M38 18v8h8" fill="none" stroke="#bbf7d0" stroke-width="3" stroke-linejoin="round"/>

  <path d="M24 30h16" stroke="#94a3b8" stroke-width="3" stroke-linecap="round"/>
  <path d="M24 36h14" stroke="#94a3b8" stroke-width="3" stroke-linecap="round"/>

  <!-- Alumno: birrete simple -->
  <path d="M18 28l14-6 14 6-14 6-14-6Z" fill="#14532d" fill-opacity="0.12" stroke="#14532d" stroke-width="2" stroke-linejoin="round"/>
  <path d="M24 32v6c2 2 5 3 8 3s6-1 8-3v-6" fill="none" stroke="#14532d" stroke-width="2" stroke-linecap="round"/>
  <path d="M46 28v8" stroke="#16a34a" stroke-width="3" stroke-linecap="round"/>
</svg>
