<svg xmlns="http://www.w3.org/2000/svg" viewBox="0 0 64 64" role="img" aria-label="Sistema de Evaluación">
  <defs>
    <linearGradient id="bg" x1="10" y1="6" x2="54" y2="58" gradientUnits="userSpaceOnUse">
      <stop offset="0" stop-color="#0b3a6b"/>
      <stop offset="0.58" stop-color="#1d6fb8"/>
      <stop offset="1" stop-color="#2fa4dd"/>
    </linearGradient>
    <linearGradient id="cap" x1="22" y1="12" x2="46" y2="32" gradientUnits="userSpaceOnUse">
      <stop offset="0" stop-color="#ffffff" stop-opacity="0.98"/>
      <stop offset="1" stop-color="#e6f0fb" stop-opacity="0.98"/>
    </linearGradient>
    <filter id="soft" x="-20%" y="-20%" width="140%" height="140%">
      <feGaussianBlur stdDeviation="1.2" result="b"/>
      <feColorMatrix in="b" type="matrix" values="1 0 0 0 0  0 1 0 0 0  0 0 1 0 0  0 0 0 0.20 0"/>
      <feMerge>
        <feMergeNode/>
        <feMergeNode in="SourceGraphic"/>
      </feMerge>
    </filter>
  </defs>

  <rect x="6" y="6" width="52" height="52" rx="14" fill="url(#bg)"/>

  <!-- Halo tecnológico -->
  <circle cx="32" cy="34" r="18" fill="#ffffff" opacity="0.10" filter="url(#soft)"/>

  <!-- Pizarra -->
  <rect x="18" y="30" width="28" height="20" rx="6" fill="#ffffff" opacity="0.96"/>
  <path d="M22 36h12" stroke="#94a3b8" stroke-width="2.6" stroke-linecap="round" opacity="0.85"/>
  <path d="M22 41h9" stroke="#94a3b8" stroke-width="2.6" stroke-linecap="round" opacity="0.72"/>

  <!-- Circuito -->
  <path d="M22 46h7v-4h8v4h7" fill="none" stroke="#22c55e" stroke-width="2.6" stroke-linecap="round" stroke-linejoin="round"/>
  <circle cx="22" cy="46" r="2.2" fill="#22c55e"/>
  <circle cx="29" cy="46" r="2.2" fill="#22c55e"/>
  <circle cx="37" cy="42" r="2.2" fill="#22c55e"/>
  <circle cx="45" cy="46" r="2.2" fill="#22c55e"/>

  <!-- Birrete -->
  <path d="M32 14l16 7-16 7-16-7 16-7Z" fill="url(#cap)"/>
  <path d="M24 25v4c0 2.2 3.6 4 8 4s8-1.8 8-4v-4" fill="#cfe3f7" opacity="0.95"/>
  <path d="M48 21v7" stroke="#f8fafc" stroke-width="2.2" stroke-linecap="round" opacity="0.9"/>
  <circle cx="48" cy="29" r="2.2" fill="#f8fafc" opacity="0.95"/>
</svg>
