<svg aria-roledescription="er" role="graphics-document document" viewBox="0 0 181.640625 554" style="max-width: 181.641px; background-color: transparent;" xmlns:xlink="http://www.w3.org/1999/xlink" xmlns="http://www.w3.org/2000/svg" width="100%" id="my-svg"><style>#my-svg{font-family:"trebuchet ms",verdana,arial,sans-serif;font-size:16px;fill:#333;}#my-svg .error-icon{fill:#552222;}#my-svg .error-text{fill:#552222;stroke:#552222;}#my-svg .edge-thickness-normal{stroke-width:2px;}#my-svg .edge-thickness-thick{stroke-width:3.5px;}#my-svg .edge-pattern-solid{stroke-dasharray:0;}#my-svg .edge-pattern-dashed{stroke-dasharray:3;}#my-svg .edge-pattern-dotted{stroke-dasharray:2;}#my-svg .marker{fill:#333333;stroke:#333333;}#my-svg .marker.cross{stroke:#333333;}#my-svg svg{font-family:"trebuchet ms",verdana,arial,sans-serif;font-size:16px;}#my-svg .entityBox{fill:#ECECFF;stroke:#9370DB;}#my-svg .attributeBoxOdd{fill:#ffffff;stroke:#9370DB;}#my-svg .attributeBoxEven{fill:#f2f2f2;stroke:#9370DB;}#my-svg .relationshipLabelBox{fill:hsl(80, 100%, 96.2745098039%);opacity:0.7;background-color:hsl(80, 100%, 96.2745098039%);}#my-svg .relationshipLabelBox rect{opacity:0.5;}#my-svg .relationshipLine{stroke:#333333;}#my-svg .entityTitleText{text-anchor:middle;font-size:18px;fill:#333;}#my-svg #MD_PARENT_START{fill:#f5f5f5!important;stroke:#333333!important;stroke-width:1;}#my-svg #MD_PARENT_END{fill:#f5f5f5!important;stroke:#333333!important;stroke-width:1;}#my-svg :root{--mermaid-font-family:"trebuchet ms",verdana,arial,sans-serif;}</style><g/><defs><marker orient="auto" markerHeight="240" markerWidth="190" refY="7" refX="0" id="MD_PARENT_START"><path d="M 18,7 L9,13 L1,7 L9,1 Z"/></marker></defs><defs><marker orient="auto" markerHeight="28" markerWidth="20" refY="7" refX="19" id="MD_PARENT_END"><path d="M 18,7 L9,13 L1,7 L9,1 Z"/></marker></defs><defs><marker orient="auto" markerHeight="18" markerWidth="18" refY="9" refX="0" id="ONLY_ONE_START"><path d="M9,0 L9,18 M15,0 L15,18" fill="none" stroke="gray"/></marker></defs><defs><marker orient="auto" markerHeight="18" markerWidth="18" refY="9" refX="18" id="ONLY_ONE_END"><path d="M3,0 L3,18 M9,0 L9,18" fill="none" stroke="gray"/></marker></defs><defs><marker orient="auto" markerHeight="18" markerWidth="30" refY="9" refX="0" id="ZERO_OR_ONE_START"><circle r="6" cy="9" cx="21" fill="white" stroke="gray"/><path d="M9,0 L9,18" fill="none" stroke="gray"/></marker></defs><defs><marker orient="auto" markerHeight="18" markerWidth="30" refY="9" refX="30" id="ZERO_OR_ONE_END"><circle r="6" cy="9" cx="9" fill="white" stroke="gray"/><path d="M21,0 L21,18" fill="none" stroke="gray"/></marker></defs><defs><marker orient="auto" markerHeight="36" markerWidth="45" refY="18" refX="18" id="ONE_OR_MORE_START"><path d="M0,18 Q 18,0 36,18 Q 18,36 0,18 M42,9 L42,27" fill="none" stroke="gray"/></marker></defs><defs><marker orient="auto" markerHeight="36" markerWidth="45" refY="18" refX="27" id="ONE_OR_MORE_END"><path d="M3,9 L3,27 M9,18 Q27,0 45,18 Q27,36 9,18" fill="none" stroke="gray"/></marker></defs><defs><marker orient="auto" markerHeight="36" markerWidth="57" refY="18" refX="18" id="ZERO_OR_MORE_START"><circle r="6" cy="18" cx="48" fill="white" stroke="gray"/><path d="M0,18 Q18,0 36,18 Q18,36 0,18" fill="none" stroke="gray"/></marker></defs><defs><marker orient="auto" markerHeight="36" markerWidth="57" refY="18" refX="39" id="ZERO_OR_MORE_END"><circle r="6" cy="18" cx="9" fill="white" stroke="gray"/><path d="M21,18 Q39,0 57,18 Q39,36 21,18" fill="none" stroke="gray"/></marker></defs><path style="stroke: gray; fill: none;" marker-start="url(#ONLY_ONE_START)" marker-end="url(#ZERO_OR_MORE_END)" d="M90.82,132L90.82,140.333C90.82,148.667,90.82,165.333,90.82,182C90.82,198.667,90.82,215.333,90.82,223.667L90.82,232" class="er relationshipLine"/><path style="stroke: gray; fill: none;" marker-start="url(#ONLY_ONE_START)" marker-end="url(#ZERO_OR_MORE_END)" d="M90.82,344L90.82,352.333C90.82,360.667,90.82,377.333,90.82,394C90.82,410.667,90.82,427.333,90.82,435.667L90.82,444" class="er relationshipLine"/><g transform="translate(29.554550170898438,20 )" id="entity-CODIGOACCESO-23b08887-8957-5c07-9320-826f4e8c6df6"><rect height="112" width="122.53152465820312" y="0" x="0" class="er entityBox"/><text style="dominant-baseline: middle; text-anchor: middle; font-size: 12px;" transform="translate(61.26576232910156,12)" y="0" x="0" id="text-entity-CODIGOACCESO-23b08887-8957-5c07-9320-826f4e8c6df6" class="er entityLabel">CODIGO_ACCESO</text><rect height="22" width="49.79243469238281" y="24" x="0" class="er attributeBoxOdd"/><text style="dominant-baseline: middle; font-size: 10.2px;" transform="translate(5,35)" y="0" x="0" id="text-entity-CODIGOACCESO-23b08887-8957-5c07-9320-826f4e8c6df6-attr-1-type" class="er entityLabel">ObjectId</text><rect height="22" width="50.05140686035156" y="24" x="49.79243469238281" class="er attributeBoxOdd"/><text style="dominant-baseline: middle; font-size: 10.2px;" transform="translate(54.79243469238281,35)" y="0" x="0" id="text-entity-CODIGOACCESO-23b08887-8957-5c07-9320-826f4e8c6df6-attr-1-name" class="er entityLabel">_id</text><rect height="22" width="22.68768310546875" y="24" x="99.84384155273438" class="er attributeBoxOdd"/><text style="dominant-baseline: middle; font-size: 10.2px;" transform="translate(104.84384155273438,35)" y="0" x="0" id="text-entity-CODIGOACCESO-23b08887-8957-5c07-9320-826f4e8c6df6-attr-1-key" class="er entityLabel">PK</text><rect height="22" width="49.79243469238281" y="46" x="0" class="er attributeBoxEven"/><text style="dominant-baseline: middle; font-size: 10.2px;" transform="translate(5,57)" y="0" x="0" id="text-entity-CODIGOACCESO-23b08887-8957-5c07-9320-826f4e8c6df6-attr-2-type" class="er entityLabel">string</text><rect height="22" width="50.05140686035156" y="46" x="49.79243469238281" class="er attributeBoxEven"/><text style="dominant-baseline: middle; font-size: 10.2px;" transform="translate(54.79243469238281,57)" y="0" x="0" id="text-entity-CODIGOACCESO-23b08887-8957-5c07-9320-826f4e8c6df6-attr-2-name" class="er entityLabel">codigo</text><rect height="22" width="22.68768310546875" y="46" x="99.84384155273438" class="er attributeBoxEven"/><text style="dominant-baseline: middle; font-size: 10.2px;" transform="translate(104.84384155273438,57)" y="0" x="0" id="text-entity-CODIGOACCESO-23b08887-8957-5c07-9320-826f4e8c6df6-attr-2-key" class="er entityLabel"/><rect height="22" width="49.79243469238281" y="68" x="0" class="er attributeBoxOdd"/><text style="dominant-baseline: middle; font-size: 10.2px;" transform="translate(5,79)" y="0" x="0" id="text-entity-CODIGOACCESO-23b08887-8957-5c07-9320-826f4e8c6df6-attr-3-type" class="er entityLabel">date</text><rect height="22" width="50.05140686035156" y="68" x="49.79243469238281" class="er attributeBoxOdd"/><text style="dominant-baseline: middle; font-size: 10.2px;" transform="translate(54.79243469238281,79)" y="0" x="0" id="text-entity-CODIGOACCESO-23b08887-8957-5c07-9320-826f4e8c6df6-attr-3-name" class="er entityLabel">expiraEn</text><rect height="22" width="22.68768310546875" y="68" x="99.84384155273438" class="er attributeBoxOdd"/><text style="dominant-baseline: middle; font-size: 10.2px;" transform="translate(104.84384155273438,79)" y="0" x="0" id="text-entity-CODIGOACCESO-23b08887-8957-5c07-9320-826f4e8c6df6-attr-3-key" class="er entityLabel"/><rect height="22" width="49.79243469238281" y="90" x="0" class="er attributeBoxEven"/><text style="dominant-baseline: middle; font-size: 10.2px;" transform="translate(5,101)" y="0" x="0" id="text-entity-CODIGOACCESO-23b08887-8957-5c07-9320-826f4e8c6df6-attr-4-type" class="er entityLabel">bool</text><rect height="22" width="50.05140686035156" y="90" x="49.79243469238281" class="er attributeBoxEven"/><text style="dominant-baseline: middle; font-size: 10.2px;" transform="translate(54.79243469238281,101)" y="0" x="0" id="text-entity-CODIGOACCESO-23b08887-8957-5c07-9320-826f4e8c6df6-attr-4-name" class="er entityLabel">usado</text><rect height="22" width="22.68768310546875" y="90" x="99.84384155273438" class="er attributeBoxEven"/><text style="dominant-baseline: middle; font-size: 10.2px;" transform="translate(104.84384155273438,101)" y="0" x="0" id="text-entity-CODIGOACCESO-23b08887-8957-5c07-9320-826f4e8c6df6-attr-4-key" class="er entityLabel"/></g><g transform="translate(20,232 )" id="entity-RESULTADOALUMNO-4c900222-4e13-59ea-b3e7-3188035a86a3"><rect height="112" width="141.640625" y="0" x="0" class="er entityBox"/><text style="dominant-baseline: middle; text-anchor: middle; font-size: 12px;" transform="translate(70.8203125,12)" y="0" x="0" id="text-entity-RESULTADOALUMNO-4c900222-4e13-59ea-b3e7-3188035a86a3" class="er entityLabel">RESULTADO_ALUMNO</text><rect height="22" width="51.488800048828125" y="24" x="0" class="er attributeBoxOdd"/><text style="dominant-baseline: middle; font-size: 10.2px;" transform="translate(5,35)" y="0" x="0" id="text-entity-RESULTADOALUMNO-4c900222-4e13-59ea-b3e7-3188035a86a3-attr-1-type" class="er entityLabel">ObjectId</text><rect height="22" width="65.76777648925781" y="24" x="51.488800048828125" class="er attributeBoxOdd"/><text style="dominant-baseline: middle; font-size: 10.2px;" transform="translate(56.488800048828125,35)" y="0" x="0" id="text-entity-RESULTADOALUMNO-4c900222-4e13-59ea-b3e7-3188035a86a3-attr-1-name" class="er entityLabel">_id</text><rect height="22" width="24.384048461914062" y="24" x="117.25657653808594" class="er attributeBoxOdd"/><text style="dominant-baseline: middle; font-size: 10.2px;" transform="translate(122.25657653808594,35)" y="0" x="0" id="text-entity-RESULTADOALUMNO-4c900222-4e13-59ea-b3e7-3188035a86a3-attr-1-key" class="er entityLabel">PK</text><rect height="22" width="51.488800048828125" y="46" x="0" class="er attributeBoxEven"/><text style="dominant-baseline: middle; font-size: 10.2px;" transform="translate(5,57)" y="0" x="0" id="text-entity-RESULTADOALUMNO-4c900222-4e13-59ea-b3e7-3188035a86a3-attr-2-type" class="er entityLabel">string</text><rect height="22" width="65.76777648925781" y="46" x="51.488800048828125" class="er attributeBoxEven"/><text style="dominant-baseline: middle; font-size: 10.2px;" transform="translate(56.488800048828125,57)" y="0" x="0" id="text-entity-RESULTADOALUMNO-4c900222-4e13-59ea-b3e7-3188035a86a3-attr-2-name" class="er entityLabel">matricula</text><rect height="22" width="24.384048461914062" y="46" x="117.25657653808594" class="er attributeBoxEven"/><text style="dominant-baseline: middle; font-size: 10.2px;" transform="translate(122.25657653808594,57)" y="0" x="0" id="text-entity-RESULTADOALUMNO-4c900222-4e13-59ea-b3e7-3188035a86a3-attr-2-key" class="er entityLabel"/><rect height="22" width="51.488800048828125" y="68" x="0" class="er attributeBoxOdd"/><text style="dominant-baseline: middle; font-size: 10.2px;" transform="translate(5,79)" y="0" x="0" id="text-entity-RESULTADOALUMNO-4c900222-4e13-59ea-b3e7-3188035a86a3-attr-3-type" class="er entityLabel">string</text><rect height="22" width="65.76777648925781" y="68" x="51.488800048828125" class="er attributeBoxOdd"/><text style="dominant-baseline: middle; font-size: 10.2px;" transform="translate(56.488800048828125,79)" y="0" x="0" id="text-entity-RESULTADOALUMNO-4c900222-4e13-59ea-b3e7-3188035a86a3-attr-3-name" class="er entityLabel">folio</text><rect height="22" width="24.384048461914062" y="68" x="117.25657653808594" class="er attributeBoxOdd"/><text style="dominant-baseline: middle; font-size: 10.2px;" transform="translate(122.25657653808594,79)" y="0" x="0" id="text-entity-RESULTADOALUMNO-4c900222-4e13-59ea-b3e7-3188035a86a3-attr-3-key" class="er entityLabel"/><rect height="22" width="51.488800048828125" y="90" x="0" class="er attributeBoxEven"/><text style="dominant-baseline: middle; font-size: 10.2px;" transform="translate(5,101)" y="0" x="0" id="text-entity-RESULTADOALUMNO-4c900222-4e13-59ea-b3e7-3188035a86a3-attr-4-type" class="er entityLabel">string</text><rect height="22" width="65.76777648925781" y="90" x="51.488800048828125" class="er attributeBoxEven"/><text style="dominant-baseline: middle; font-size: 10.2px;" transform="translate(56.488800048828125,101)" y="0" x="0" id="text-entity-RESULTADOALUMNO-4c900222-4e13-59ea-b3e7-3188035a86a3-attr-4-name" class="er entityLabel">tipoExamen</text><rect height="22" width="24.384048461914062" y="90" x="117.25657653808594" class="er attributeBoxEven"/><text style="dominant-baseline: middle; font-size: 10.2px;" transform="translate(122.25657653808594,101)" y="0" x="0" id="text-entity-RESULTADOALUMNO-4c900222-4e13-59ea-b3e7-3188035a86a3-attr-4-key" class="er entityLabel"/></g><g transform="translate(25.600059509277344,444 )" id="entity-SESIONALUMNO-0111557c-146d-5b64-bd0d-63e5e931ad89"><rect height="90" width="130.4405059814453" y="0" x="0" class="er entityBox"/><text style="dominant-baseline: middle; text-anchor: middle; font-size: 12px;" transform="translate(65.22025299072266,12)" y="0" x="0" id="text-entity-SESIONALUMNO-0111557c-146d-5b64-bd0d-63e5e931ad89" class="er entityLabel">SESION_ALUMNO</text><rect height="22" width="49.79243469238281" y="24" x="0" class="er attributeBoxOdd"/><text style="dominant-baseline: middle; font-size: 10.2px;" transform="translate(5,35)" y="0" x="0" id="text-entity-SESIONALUMNO-0111557c-146d-5b64-bd0d-63e5e931ad89-attr-1-type" class="er entityLabel">ObjectId</text><rect height="22" width="57.96038818359375" y="24" x="49.79243469238281" class="er attributeBoxOdd"/><text style="dominant-baseline: middle; font-size: 10.2px;" transform="translate(54.79243469238281,35)" y="0" x="0" id="text-entity-SESIONALUMNO-0111557c-146d-5b64-bd0d-63e5e931ad89-attr-1-name" class="er entityLabel">_id</text><rect height="22" width="22.68768310546875" y="24" x="107.75282287597656" class="er attributeBoxOdd"/><text style="dominant-baseline: middle; font-size: 10.2px;" transform="translate(112.75282287597656,35)" y="0" x="0" id="text-entity-SESIONALUMNO-0111557c-146d-5b64-bd0d-63e5e931ad89-attr-1-key" class="er entityLabel">PK</text><rect height="22" width="49.79243469238281" y="46" x="0" class="er attributeBoxEven"/><text style="dominant-baseline: middle; font-size: 10.2px;" transform="translate(5,57)" y="0" x="0" id="text-entity-SESIONALUMNO-0111557c-146d-5b64-bd0d-63e5e931ad89-attr-2-type" class="er entityLabel">string</text><rect height="22" width="57.96038818359375" y="46" x="49.79243469238281" class="er attributeBoxEven"/><text style="dominant-baseline: middle; font-size: 10.2px;" transform="translate(54.79243469238281,57)" y="0" x="0" id="text-entity-SESIONALUMNO-0111557c-146d-5b64-bd0d-63e5e931ad89-attr-2-name" class="er entityLabel">tokenHash</text><rect height="22" width="22.68768310546875" y="46" x="107.75282287597656" class="er attributeBoxEven"/><text style="dominant-baseline: middle; font-size: 10.2px;" transform="translate(112.75282287597656,57)" y="0" x="0" id="text-entity-SESIONALUMNO-0111557c-146d-5b64-bd0d-63e5e931ad89-attr-2-key" class="er entityLabel"/><rect height="22" width="49.79243469238281" y="68" x="0" class="er attributeBoxOdd"/><text style="dominant-baseline: middle; font-size: 10.2px;" transform="translate(5,79)" y="0" x="0" id="text-entity-SESIONALUMNO-0111557c-146d-5b64-bd0d-63e5e931ad89-attr-3-type" class="er entityLabel">date</text><rect height="22" width="57.96038818359375" y="68" x="49.79243469238281" class="er attributeBoxOdd"/><text style="dominant-baseline: middle; font-size: 10.2px;" transform="translate(54.79243469238281,79)" y="0" x="0" id="text-entity-SESIONALUMNO-0111557c-146d-5b64-bd0d-63e5e931ad89-attr-3-name" class="er entityLabel">expiraEn</text><rect height="22" width="22.68768310546875" y="68" x="107.75282287597656" class="er attributeBoxOdd"/><text style="dominant-baseline: middle; font-size: 10.2px;" transform="translate(112.75282287597656,79)" y="0" x="0" id="text-entity-SESIONALUMNO-0111557c-146d-5b64-bd0d-63e5e931ad89-attr-3-key" class="er entityLabel"/></g><rect height="14" width="51.220703125" y="175" x="65.20964813232422" class="er relationshipLabelBox"/><text style="text-anchor: middle; dominant-baseline: middle; font-size: 12px;" y="182" x="90.81999969482422" id="rel1" class="er relationshipLabel">periodoId</text><rect height="14" width="49.697265625" y="387" x="65.97136688232422" class="er relationshipLabelBox"/><text style="text-anchor: middle; dominant-baseline: middle; font-size: 12px;" y="394" x="90.81999969482422" id="rel2" class="er relationshipLabel">alumnoId</text></svg>